<svg width="24" height="24" viewBox="0 0 24 24" fill="none" xmlns="http://www.w3.org/2000/svg">
<circle cx="12" cy="12" r="12" fill="#3164F6"/>
<path d="M17 10.998H7.00002C6.44772 10.998 6 11.4458 6 11.9981C6 12.5504 6.44772 12.9981 7.00002 12.9981H17C17.5523 12.9981 18 12.5504 18 11.9981C18 11.4458 17.5523 10.998 17 10.998Z" fill="white"/>
<path d="M11 7L11 17C11 17.5523 11.4477 18 12 18C12.5523 18 13 17.5523 13 17L13 7C13 6.44771 12.5523 6 12 6C11.4477 6 11 6.44771 11 7Z" fill="white"/>
</svg>
